<?xml version="1.0" encoding="utf-8"?>
<svg id="master-artboard" viewBox="0 0 550 385" version="1.1" xmlns="http://www.w3.org/2000/svg" x="0px" y="0px" style="enable-background:new 0 0 550 385;" width="550px" height="385px"><rect id="ee-background" x="0" y="0" width="550" height="385" style="fill: white; fill-opacity: 0; pointer-events: none;"/>


<g transform="matrix(1, 0, 0, 1, 0, 0)">
		<g id="first">
			<path class="st0" d="M434.7,285.9L434.7,285.9c0.1,0,0.1,0,0.2,0C434.8,285.9,434.8,285.9,434.7,285.9z M434.9,286.7&#10;&#9;&#9;&#9;&#9;c-1.4,0-2.6,0.6-3.4,1.6c-0.2,0.2-0.4,0.5-0.5,0.7c-0.2,0.4-0.4,0.7-0.5,1.2c-0.2,0.6-0.9,0.4-0.8-0.1c0.2-0.7,0.4-1.3,0.8-1.8&#10;&#9;&#9;&#9;&#9;c0,0,0,0,0,0c0.1-0.2,0.3-0.4,0.5-0.6l0,0c0.7-0.7,1.5-1.2,2.5-1.5c0,0,0,0,0,0c0.1,0,0.2,0,0.2-0.1c0,0,0,0,0,0&#10;&#9;&#9;&#9;&#9;c0.1,0,0.2,0,0.2,0c0,0,0,0,0,0c0.1,0,0.2,0,0.2,0c0,0,0,0,0.1,0c0.1,0,0.2,0,0.2,0c0,0,0,0,0,0c0,0,0.1,0,0.1,0&#10;&#9;&#9;&#9;&#9;c0-0.1,0-0.1,0-0.2c0-5.6-4.5-10.1-10.1-10.1c-3.8,0-7.1,2.1-8.8,5.3c0,0,0,0,0.1,0c0.1,0,0.2,0,0.3,0.1c0.1,0,0.1,0,0.2,0&#10;&#9;&#9;&#9;&#9;c0.1,0,0.1,0,0.2,0c0.1,0,0.1,0,0.2,0.1c0,0,0.1,0,0.1,0c0.1,0,0.1,0,0.2,0.1c0,0,0,0,0.1,0c0.3,0.1,0.5,0.2,0.8,0.3c0,0,0,0,0,0&#10;&#9;&#9;&#9;&#9;c1.9,0.9,3.4,2.5,4.1,4.5c0,0,0,0,0,0c0.1,0.2,0.2,0.5,0.2,0.8l0,0c0,0.1,0.1,0.3,0.1,0.5c0,0,0,0,0,0.1c0,0.1,0,0.3,0.1,0.4&#10;&#9;&#9;&#9;&#9;c0,0,0,0.1,0,0.1c0,0.1,0,0.2,0,0.4c0,0,0,0.1,0,0.1c0,0.2,0,0.3,0,0.5c0,0,0,0.1,0,0.1c0,0.1,0,0.2,0,0.2c0,0.1,0,0.2,0,0.3&#10;&#9;&#9;&#9;&#9;c-0.1,0.6-0.9,0.4-0.8-0.1c0-0.2,0-0.4,0-0.6c0-0.5-0.1-1-0.2-1.5c-0.1-0.3-0.1-0.5-0.2-0.8c-0.9-2.8-3.6-4.8-6.7-4.8&#10;&#9;&#9;&#9;&#9;c-3.9,0-7.1,3.2-7.1,7.1c0,3.9,3.2,7.1,7.1,7.1h3.4h0h14.1h0h2.8c2.5,0,4.6-2,4.6-4.6C439.5,288.8,437.4,286.7,434.9,286.7z&#10;&#9;&#9;&#9;&#9; M417.7,300.6c0.1,0,0.3,0,0.4-0.1c0.1-0.1,0.2-0.2,0.2-0.3c0-0.1,0-0.3-0.1-0.4c-0.1-0.1-0.2-0.2-0.3-0.2c-0.1,0-0.3,0-0.4,0.1&#10;&#9;&#9;&#9;&#9;c-0.1,0.1-0.2,0.2-0.2,0.3c0,0.1,0,0.2,0,0.2l-0.7,0.4v-0.8c0.1,0,0.1-0.1,0.2-0.1c0.1-0.1,0.2-0.2,0.2-0.4c0-0.1,0-0.3-0.2-0.4&#10;&#9;&#9;&#9;&#9;c-0.1-0.1-0.2-0.2-0.4-0.2c-0.1,0-0.3,0.1-0.4,0.2c-0.1,0.1-0.2,0.2-0.2,0.4c0,0.1,0.1,0.3,0.2,0.4c0.1,0.1,0.1,0.1,0.2,0.1v0.8&#10;&#9;&#9;&#9;&#9;l-0.7-0.4c0-0.1,0-0.1,0-0.2c0-0.1-0.1-0.2-0.2-0.3c-0.1-0.1-0.3-0.1-0.4-0.1c-0.1,0-0.2,0.1-0.3,0.2c-0.1,0.1-0.1,0.3-0.1,0.4&#10;&#9;&#9;&#9;&#9;c0,0.1,0.1,0.2,0.2,0.3c0.1,0.1,0.3,0.1,0.4,0.1c0.1,0,0.1-0.1,0.2-0.1l0.7,0.4l-0.7,0.4c-0.1,0-0.1-0.1-0.2-0.1&#10;&#9;&#9;&#9;&#9;c-0.1,0-0.3,0-0.4,0.1c-0.1,0.1-0.2,0.2-0.2,0.3c0,0.1,0,0.3,0.1,0.4c0.1,0.1,0.2,0.2,0.3,0.2c0.1,0,0.3,0,0.4-0.1&#10;&#9;&#9;&#9;&#9;c0.1-0.1,0.2-0.2,0.2-0.3c0-0.1,0-0.2,0-0.2l0.7-0.4v0.8c-0.1,0-0.1,0.1-0.2,0.1c-0.1,0.1-0.2,0.2-0.2,0.4c0,0.1,0,0.3,0.2,0.4&#10;&#9;&#9;&#9;&#9;c0.1,0.1,0.2,0.2,0.4,0.2c0.1,0,0.3-0.1,0.4-0.2c0.1-0.1,0.2-0.2,0.2-0.4c0-0.1,0-0.3-0.2-0.4c-0.1-0.1-0.1-0.1-0.2-0.1v-0.8&#10;&#9;&#9;&#9;&#9;l0.7,0.4c0,0.1,0,0.1,0,0.2c0,0.1,0.1,0.2,0.2,0.3c0.1,0.1,0.3,0.1,0.4,0.1c0.1,0,0.2-0.1,0.3-0.2c0.1-0.1,0.1-0.3,0.1-0.4&#10;&#9;&#9;&#9;&#9;c0-0.1-0.1-0.2-0.2-0.3c-0.1-0.1-0.3-0.1-0.4-0.1c-0.1,0-0.1,0.1-0.2,0.1l-0.7-0.4l0.7-0.4C417.5,300.5,417.6,300.6,417.7,300.6z&#10;&#9;&#9;&#9;&#9; M425.8,300.6c0.1,0,0.3,0,0.4-0.1c0.1-0.1,0.2-0.2,0.2-0.3c0-0.1,0-0.3-0.1-0.4c-0.1-0.1-0.2-0.2-0.3-0.2c-0.1,0-0.3,0-0.4,0.1&#10;&#9;&#9;&#9;&#9;c-0.1,0.1-0.2,0.2-0.2,0.3c0,0.1,0,0.2,0,0.2l-0.7,0.4v-0.8c0.1,0,0.1-0.1,0.2-0.1c0.1-0.1,0.2-0.2,0.2-0.4&#10;&#9;&#9;&#9;&#9;c0-0.1-0.1-0.3-0.2-0.4c-0.1-0.1-0.2-0.2-0.4-0.2c-0.1,0-0.3,0.1-0.4,0.2c-0.1,0.1-0.2,0.2-0.2,0.4c0,0.1,0.1,0.3,0.2,0.4&#10;&#9;&#9;&#9;&#9;c0.1,0.1,0.1,0.1,0.2,0.1v0.8l-0.7-0.4c0-0.1,0-0.1,0-0.2c0-0.1-0.1-0.2-0.2-0.3c-0.1-0.1-0.3-0.1-0.4-0.1&#10;&#9;&#9;&#9;&#9;c-0.1,0-0.2,0.1-0.3,0.2c-0.1,0.1-0.1,0.3-0.1,0.4c0,0.1,0.1,0.2,0.2,0.3c0.1,0.1,0.3,0.1,0.4,0.1c0.1,0,0.1-0.1,0.2-0.1l0.7,0.4&#10;&#9;&#9;&#9;&#9;l-0.7,0.4c-0.1,0-0.1-0.1-0.2-0.1c-0.1,0-0.3,0-0.4,0.1c-0.1,0.1-0.2,0.2-0.2,0.3c0,0.1,0,0.3,0.1,0.4c0.1,0.1,0.2,0.2,0.3,0.2&#10;&#9;&#9;&#9;&#9;c0.1,0,0.3,0,0.4-0.1c0.1-0.1,0.2-0.2,0.2-0.3c0-0.1,0-0.2,0-0.2l0.7-0.4v0.8c-0.1,0-0.1,0.1-0.2,0.1c-0.1,0.1-0.2,0.2-0.2,0.4&#10;&#9;&#9;&#9;&#9;c0,0.1,0.1,0.3,0.2,0.4c0.1,0.1,0.2,0.2,0.4,0.2c0.1,0,0.3-0.1,0.4-0.2c0.1-0.1,0.2-0.2,0.2-0.4c0-0.1-0.1-0.3-0.2-0.4&#10;&#9;&#9;&#9;&#9;c-0.1-0.1-0.1-0.1-0.2-0.1v-0.8l0.7,0.4c0,0.1,0,0.1,0,0.2c0,0.1,0.1,0.2,0.2,0.3c0.1,0.1,0.3,0.1,0.4,0.1c0.1,0,0.2-0.1,0.3-0.2&#10;&#9;&#9;&#9;&#9;c0.1-0.1,0.1-0.3,0.1-0.4c0-0.1-0.1-0.2-0.2-0.3c-0.1-0.1-0.3-0.1-0.4-0.1c-0.1,0-0.1,0.1-0.2,0.1l-0.7-0.4l0.7-0.4&#10;&#9;&#9;&#9;&#9;C425.7,300.5,425.8,300.6,425.8,300.6z M434,300.6c0.1,0,0.3,0,0.4-0.1c0.1-0.1,0.2-0.2,0.2-0.3c0-0.1,0-0.3-0.1-0.4&#10;&#9;&#9;&#9;&#9;c-0.1-0.1-0.2-0.2-0.3-0.2c-0.1,0-0.3,0-0.4,0.1c-0.1,0.1-0.2,0.2-0.2,0.3c0,0.1,0,0.2,0,0.2l-0.7,0.4v-0.8&#10;&#9;&#9;&#9;&#9;c0.1,0,0.1-0.1,0.2-0.1c0.1-0.1,0.2-0.2,0.2-0.4c0-0.1-0.1-0.3-0.2-0.4c-0.1-0.1-0.2-0.2-0.4-0.2c-0.1,0-0.3,0.1-0.4,0.2&#10;&#9;&#9;&#9;&#9;c-0.1,0.1-0.2,0.2-0.2,0.4c0,0.1,0,0.3,0.2,0.4c0.1,0.1,0.1,0.1,0.2,0.1v0.8l-0.7-0.4c0-0.1,0-0.1,0-0.2c0-0.1-0.1-0.2-0.2-0.3&#10;&#9;&#9;&#9;&#9;c-0.1-0.1-0.3-0.1-0.4-0.1c-0.1,0-0.2,0.1-0.3,0.2c-0.1,0.1-0.1,0.3-0.1,0.4c0,0.1,0.1,0.2,0.2,0.3c0.1,0.1,0.3,0.1,0.4,0.1&#10;&#9;&#9;&#9;&#9;c0.1,0,0.1-0.1,0.2-0.1l0.7,0.4l-0.7,0.4c-0.1,0-0.1-0.1-0.2-0.1c-0.1,0-0.3,0-0.4,0.1c-0.1,0.1-0.2,0.2-0.2,0.3&#10;&#9;&#9;&#9;&#9;c0,0.1,0,0.3,0.1,0.4c0.1,0.1,0.2,0.2,0.3,0.2c0.1,0,0.3,0,0.4-0.1c0.1-0.1,0.2-0.2,0.2-0.3c0-0.1,0-0.2,0-0.2l0.7-0.4v0.8&#10;&#9;&#9;&#9;&#9;c-0.1,0-0.1,0.1-0.2,0.1c-0.1,0.1-0.2,0.2-0.2,0.4c0,0.1,0.1,0.3,0.2,0.4c0.1,0.1,0.2,0.2,0.4,0.2c0.1,0,0.3-0.1,0.4-0.2&#10;&#9;&#9;&#9;&#9;c0.1-0.1,0.2-0.2,0.2-0.4c0-0.1-0.1-0.3-0.2-0.4c-0.1-0.1-0.1-0.1-0.2-0.1v-0.8l0.7,0.4c0,0.1,0,0.1,0,0.2c0,0.1,0.1,0.2,0.2,0.3&#10;&#9;&#9;&#9;&#9;c0.1,0.1,0.3,0.1,0.4,0.1c0.1,0,0.2-0.1,0.3-0.2c0.1-0.1,0.1-0.3,0.1-0.4c0-0.1-0.1-0.2-0.2-0.3c-0.1-0.1-0.3-0.1-0.4-0.1&#10;&#9;&#9;&#9;&#9;c-0.1,0-0.1,0.1-0.2,0.1l-0.7-0.4l0.7-0.4C433.8,300.5,433.9,300.6,434,300.6z M429.9,304.9c0.1,0,0.3,0,0.4-0.1&#10;&#9;&#9;&#9;&#9;c0.1-0.1,0.2-0.2,0.2-0.3c0-0.1,0-0.3-0.1-0.4c-0.1-0.1-0.2-0.2-0.3-0.2c-0.1,0-0.3,0-0.4,0c-0.1,0.1-0.2,0.2-0.2,0.3&#10;&#9;&#9;&#9;&#9;c0,0.1,0,0.2,0,0.2l-0.7,0.4V304c0.1,0,0.1-0.1,0.2-0.1c0.1-0.1,0.2-0.2,0.2-0.4c0-0.1-0.1-0.3-0.2-0.4c-0.1-0.1-0.2-0.2-0.4-0.2&#10;&#9;&#9;&#9;&#9;c-0.1,0-0.3,0.1-0.4,0.2c-0.1,0.1-0.2,0.2-0.2,0.4c0,0.1,0,0.3,0.2,0.4c0.1,0.1,0.1,0.1,0.2,0.1v0.8l-0.7-0.4c0-0.1,0-0.1,0-0.2&#10;&#9;&#9;&#9;&#9;c0-0.1-0.1-0.2-0.2-0.3c-0.1-0.1-0.3-0.1-0.4,0c-0.1,0-0.2,0.1-0.3,0.2c-0.1,0.1-0.1,0.3-0.1,0.4c0,0.1,0.1,0.2,0.2,0.3&#10;&#9;&#9;&#9;&#9;c0.1,0.1,0.3,0.1,0.4,0.1c0.1,0,0.1-0.1,0.2-0.1l0.7,0.4l-0.7,0.4c-0.1,0-0.1-0.1-0.2-0.1c-0.1,0-0.3,0-0.4,0.1&#10;&#9;&#9;&#9;&#9;c-0.1,0.1-0.2,0.2-0.2,0.3c0,0.1,0,0.3,0.1,0.4c0.1,0.1,0.2,0.2,0.3,0.2c0.1,0,0.3,0,0.4-0.1c0.1-0.1,0.2-0.2,0.2-0.3&#10;&#9;&#9;&#9;&#9;c0-0.1,0-0.2,0-0.2l0.7-0.4v0.8c-0.1,0-0.1,0.1-0.2,0.1c-0.1,0.1-0.2,0.2-0.2,0.4c0,0.1,0.1,0.3,0.2,0.4c0.1,0.1,0.2,0.2,0.4,0.2&#10;&#9;&#9;&#9;&#9;c0.1,0,0.3-0.1,0.4-0.2c0.1-0.1,0.2-0.2,0.2-0.4c0-0.1-0.1-0.3-0.2-0.4c-0.1-0.1-0.1-0.1-0.2-0.1v-0.8l0.7,0.4c0,0.1,0,0.1,0,0.2&#10;&#9;&#9;&#9;&#9;c0,0.1,0.1,0.2,0.2,0.3c0.1,0.1,0.3,0.1,0.4,0.1c0.1,0,0.2-0.1,0.3-0.2c0.1-0.1,0.1-0.3,0.1-0.4c0-0.1-0.1-0.2-0.2-0.3&#10;&#9;&#9;&#9;&#9;c-0.1-0.1-0.3-0.1-0.4-0.1c-0.1,0-0.1,0.1-0.2,0.1l-0.7-0.4l0.7-0.4C429.8,304.8,429.8,304.8,429.9,304.9z M421.8,304.9&#10;&#9;&#9;&#9;&#9;c0.1,0,0.3,0,0.4-0.1c0.1-0.1,0.2-0.2,0.2-0.3c0-0.1,0-0.3-0.1-0.4c-0.1-0.1-0.2-0.2-0.3-0.2c-0.1,0-0.3,0-0.4,0&#10;&#9;&#9;&#9;&#9;c-0.1,0.1-0.2,0.2-0.2,0.3c0,0.1,0,0.2,0,0.2l-0.7,0.4V304c0.1,0,0.1-0.1,0.2-0.1c0.1-0.1,0.2-0.2,0.2-0.4c0-0.1-0.1-0.3-0.2-0.4&#10;&#9;&#9;&#9;&#9;c-0.1-0.1-0.2-0.2-0.4-0.2c-0.1,0-0.3,0.1-0.4,0.2c-0.1,0.1-0.2,0.2-0.2,0.4c0,0.1,0.1,0.3,0.2,0.4c0.1,0.1,0.1,0.1,0.2,0.1v0.8&#10;&#9;&#9;&#9;&#9;l-0.7-0.4c0-0.1,0-0.1,0-0.2c0-0.1-0.1-0.2-0.2-0.3c-0.1-0.1-0.3-0.1-0.4,0c-0.1,0-0.2,0.1-0.3,0.2c-0.1,0.1-0.1,0.3-0.1,0.4&#10;&#9;&#9;&#9;&#9;c0,0.1,0.1,0.2,0.2,0.3c0.1,0.1,0.3,0.1,0.4,0.1c0.1,0,0.1-0.1,0.2-0.1l0.7,0.4l-0.7,0.4c-0.1,0-0.1-0.1-0.2-0.1&#10;&#9;&#9;&#9;&#9;c-0.1,0-0.3,0-0.4,0.1c-0.1,0.1-0.2,0.2-0.2,0.3c0,0.1,0,0.3,0.1,0.4c0.1,0.1,0.2,0.2,0.3,0.2c0.1,0,0.3,0,0.4-0.1&#10;&#9;&#9;&#9;&#9;c0.1-0.1,0.2-0.2,0.2-0.3c0-0.1,0-0.2,0-0.2l0.7-0.4v0.8c-0.1,0-0.1,0.1-0.2,0.1c-0.1,0.1-0.2,0.2-0.2,0.4c0,0.1,0.1,0.3,0.2,0.4&#10;&#9;&#9;&#9;&#9;c0.1,0.1,0.2,0.2,0.4,0.2c0.1,0,0.3-0.1,0.4-0.2c0.1-0.1,0.2-0.2,0.2-0.4c0-0.1-0.1-0.3-0.2-0.4c-0.1-0.1-0.1-0.1-0.2-0.1v-0.8&#10;&#9;&#9;&#9;&#9;l0.7,0.4c0,0.1,0,0.1,0,0.2c0,0.1,0.1,0.2,0.2,0.3c0.1,0.1,0.3,0.1,0.4,0.1c0.1,0,0.2-0.1,0.3-0.2c0.1-0.1,0.1-0.3,0.1-0.4&#10;&#9;&#9;&#9;&#9;c0-0.1-0.1-0.2-0.2-0.3c-0.1-0.1-0.3-0.1-0.4-0.1c-0.1,0-0.1,0.1-0.2,0.1l-0.7-0.4l0.7-0.4C421.6,304.8,421.7,304.8,421.8,304.9z&#10;&#9;&#9;&#9;&#9;" style="fill: rgb(141, 198, 63);"/>
			<path class="st0" d="M423.5,258.8c18,0,32.7,14.7,32.7,32.7c0,18-14.7,32.7-32.7,32.7c-18,0-32.7-14.7-32.7-32.7&#10;&#9;&#9;&#9;&#9;C390.8,273.5,405.5,258.8,423.5,258.8 M423.5,256.7c-19.2,0-34.8,15.6-34.8,34.8c0,19.2,15.6,34.8,34.8,34.8&#10;&#9;&#9;&#9;&#9;c19.2,0,34.8-15.6,34.8-34.8C458.3,272.3,442.7,256.7,423.5,256.7L423.5,256.7z" style="fill: rgb(141, 198, 63);"/>
		</g>
		<g id="second">
			<path class="st0" d="M337.6,303.1h-3.2h0h-16.2h0h-3.9c-4.5,0-8.2-3.7-8.2-8.2c0-4.5,3.7-8.2,8.2-8.2c3.6,0,6.6,2.3,7.7,5.5&#10;&#9;&#9;&#9;&#9;c0.1,0.3,0.2,0.6,0.3,0.9c0.1,0.5,0.2,1.1,0.2,1.7c0,0.2,0,0.4,0,0.6c-0.1,0.6,0.8,0.8,0.9,0.1c0-0.1,0-0.2,0-0.3&#10;&#9;&#9;&#9;&#9;c0-0.1,0-0.2,0-0.3c0,0,0-0.1,0-0.1c0-0.2,0-0.4,0-0.5c0,0,0-0.1,0-0.1c0-0.1,0-0.3,0-0.4c0,0,0-0.1,0-0.1c0-0.1,0-0.3-0.1-0.4&#10;&#9;&#9;&#9;&#9;c0,0,0-0.1,0-0.1c0-0.2-0.1-0.3-0.1-0.5c0,0,0,0,0,0c-0.1-0.3-0.2-0.6-0.3-0.9c0,0,0,0,0,0c-0.8-2.3-2.6-4.1-4.7-5.1c0,0,0,0,0,0&#10;&#9;&#9;&#9;&#9;c-0.3-0.1-0.6-0.3-0.9-0.4c0,0,0,0-0.1,0c-0.1,0-0.2-0.1-0.2-0.1c0,0-0.1,0-0.1,0c-0.1,0-0.1,0-0.2-0.1c-0.1,0-0.1,0-0.2,0&#10;&#9;&#9;&#9;&#9;c-0.1,0-0.1,0-0.2,0c-0.1,0-0.2,0-0.4-0.1c0,0,0,0-0.1,0c2-3.6,5.8-6.1,10.2-6.1c6.4,0,11.6,5.2,11.6,11.6c0,0.1,0,0.1,0,0.2&#10;&#9;&#9;&#9;&#9;c0.1,0,0.2,0,0.2,0c-0.1,0-0.2,0-0.3,0c0,0,0,0-0.1,0c-0.1,0-0.2,0-0.3,0c0,0,0,0-0.1,0c-0.1,0-0.2,0-0.3,0c0,0,0,0,0,0&#10;&#9;&#9;&#9;&#9;c-0.1,0-0.2,0-0.3,0c0,0,0,0,0,0c-0.1,0-0.2,0-0.3,0.1c0,0,0,0,0,0c-1.1,0.3-2.1,0.9-2.9,1.7l0,0c-0.2,0.2-0.4,0.5-0.6,0.7&#10;&#9;&#9;&#9;&#9;c0,0,0,0,0,0c-0.4,0.6-0.8,1.3-0.9,2.1c-0.1,0.5,0.7,0.7,0.9,0.1c0.1-0.5,0.3-0.9,0.5-1.3c0.2-0.3,0.4-0.6,0.6-0.8&#10;&#9;&#9;&#9;&#9;c1-1.1,2.4-1.8,4-1.8c2.9,0,5.3,2.4,5.3,5.3C342.9,300.7,340.5,303.1,337.6,303.1z" style="fill: rgb(141, 198, 63);"/>
			<path class="st0" d="M324.5,258.8c18,0,32.7,14.7,32.7,32.7c0,18-14.7,32.7-32.7,32.7c-18,0-32.7-14.7-32.7-32.7&#10;&#9;&#9;&#9;&#9;C291.8,273.5,306.5,258.8,324.5,258.8 M324.5,256.7c-19.2,0-34.8,15.6-34.8,34.8c0,19.2,15.6,34.8,34.8,34.8&#10;&#9;&#9;&#9;&#9;c19.2,0,34.8-15.6,34.8-34.8C359.3,272.3,343.7,256.7,324.5,256.7L324.5,256.7z" style="fill: rgb(141, 198, 63);"/>
		</g>
		<g>
			<path class="st1" d="M236.1,277.3c-0.2-0.1-0.3-0.2-0.5-0.3l0.1-0.2c0.4-0.5,1.1-0.7,1.7-0.3c0.5,0.4,0.6,1.1,0.3,1.7l-0.1,0.1&#10;&#9;&#9;&#9;&#9;c-0.4-0.4-0.6-0.6-0.7-0.6C236.8,277.7,236.6,277.5,236.1,277.3z M220.1,300.1L220.1,300.1c0,0-3.1,4.6-3.7,5.4&#10;&#9;&#9;&#9;&#9;c-0.7,1-2.1,2-3.5,1c-1.4-1-1.3-2.3-0.9-2.9c0.4-0.6,0.9-1.1,1.6-1.3l-0.7-1.1c0,0-1.3,0.5-2,1.9c-0.7,1.4-0.3,3.3,1.2,4.3&#10;&#9;&#9;&#9;&#9;c1.4,1,3.7,1,5-0.9c1.3-1.9,3.9-5.8,3.9-5.8l0,0l6.7-9.9c-0.3-0.2-0.6-0.5-0.9-0.7L220.1,300.1z M235,295.3&#10;&#9;&#9;&#9;&#9;c0.1-0.2,0.2-0.4,0.3-0.6c0,0,0,0,0,0c0.1-0.2,0.2-0.4,0.3-0.6c0,0,0-0.1,0-0.1c0.1-0.2,0.2-0.4,0.3-0.7c0,0,0-0.1,0-0.1&#10;&#9;&#9;&#9;&#9;c0.1-0.2,0.2-0.5,0.3-0.7c0,0,0,0,0,0c0.1-0.2,0.2-0.5,0.3-0.7c0,0,0-0.1,0-0.1c0.1-0.2,0.2-0.5,0.3-0.7c0,0,0-0.1,0-0.1&#10;&#9;&#9;&#9;&#9;c0.1-0.2,0.2-0.5,0.3-0.7v0c0.1-0.2,0.2-0.5,0.3-0.7c0,0,0-0.1,0-0.1c0.1-0.2,0.2-0.5,0.2-0.7c0,0,0-0.1,0-0.1&#10;&#9;&#9;&#9;&#9;c0.1-0.2,0.2-0.5,0.2-0.7c0,0,0,0,0,0c0.1-0.2,0.1-0.4,0.2-0.7c0,0,0-0.1,0-0.1c0.1-0.2,0.1-0.4,0.1-0.6c0,0,0-0.1,0-0.1&#10;&#9;&#9;&#9;&#9;c0-0.2,0.1-0.4,0.1-0.6c0.2-1.6,0.2-3.1-0.1-4c0-0.2-0.1-0.3-0.1-0.5c0,0,0-0.1,0-0.1c0-0.1-0.1-0.2-0.1-0.3c0,0,0-0.1,0-0.1&#10;&#9;&#9;&#9;&#9;c0-0.1-0.1-0.2-0.1-0.3c0,0,0,0,0-0.1c-0.1-0.1-0.1-0.2-0.2-0.3c0,0,0,0,0,0c-0.1-0.1-0.1-0.2-0.2-0.3c0,0,0,0,0,0&#10;&#9;&#9;&#9;&#9;c-0.2-0.3-0.4-0.5-0.6-0.7c-0.4-0.4-0.7-0.6-0.7-0.6l0,0c0,0-0.5-0.4-1.5-0.8c0,0,0,0-0.1,0c-0.1,0-0.1,0-0.2-0.1&#10;&#9;&#9;&#9;&#9;c0,0-0.1,0-0.1,0c-0.1,0-0.1,0-0.2-0.1c-0.1,0-0.1,0-0.2-0.1c-0.1,0-0.1,0-0.2,0c-0.1,0-0.2,0-0.2-0.1c-0.1,0-0.1,0-0.2,0&#10;&#9;&#9;&#9;&#9;c-0.1,0-0.3-0.1-0.4-0.1c-0.2,0-0.5-0.1-0.7-0.1c-1.7,0-3.5,0.9-4.8,1.5c-0.2,0.1-0.4,0.2-0.6,0.3c-0.1,0-0.1,0.1-0.2,0.1&#10;&#9;&#9;&#9;&#9;c0,0,0,0,0,0c-0.1,0-0.2,0.1-0.3,0.2c0,0,0,0,0,0c-0.1,0.1-0.2,0.1-0.3,0.2c0,0,0,0-0.1,0c-0.1,0.1-0.2,0.2-0.4,0.3&#10;&#9;&#9;&#9;&#9;c0,0,0,0-0.1,0c-0.1,0.1-0.3,0.2-0.4,0.3c0,0,0,0,0,0c-0.2,0.1-0.3,0.3-0.5,0.4c0,0,0,0,0,0c-0.2,0.1-0.3,0.3-0.5,0.4&#10;&#9;&#9;&#9;&#9;c0,0,0,0,0,0c-0.2,0.1-0.4,0.3-0.5,0.4c0,0,0,0-0.1,0c-0.2,0.1-0.4,0.3-0.5,0.4c0,0,0,0-0.1,0.1c-0.2,0.2-0.4,0.3-0.6,0.5&#10;&#9;&#9;&#9;&#9;c0,0,0,0-0.1,0c-0.2,0.2-0.4,0.3-0.6,0.5c0,0,0,0,0,0c-0.2,0.2-0.4,0.3-0.6,0.5c0,0,0,0,0,0c-0.2,0.1-0.3,0.3-0.5,0.4&#10;&#9;&#9;&#9;&#9;c0,0-0.1,0-0.1,0.1c-0.2,0.1-0.3,0.3-0.5,0.4c0,0,0,0-0.1,0.1c-0.2,0.1-0.3,0.3-0.5,0.4c0,0,0,0,0,0c-0.2,0.1-0.3,0.3-0.4,0.4&#10;&#9;&#9;&#9;&#9;c0,0,0,0,0,0c1.5,0.4,4.7,1.6,8.3,4.2c0.3,0.2,0.6,0.5,0.9,0.7c2.1,1.7,4.2,3.8,6,6.6c0,0,0,0,0,0c0.1-0.2,0.3-0.5,0.4-0.9&#10;&#9;&#9;&#9;&#9;c0,0,0,0,0,0C234.8,295.7,234.9,295.5,235,295.3C235,295.3,235,295.3,235,295.3z M218.4,284.8c1-0.9,3.2-2.7,5.1-4.3c0,0,0,0,0,0&#10;&#9;&#9;&#9;&#9;c0.1-0.1,0.2-0.2,0.3-0.3c0,0,0,0,0,0c0.1-0.1,0.2-0.2,0.3-0.2c0,0,0,0,0,0c0.1-0.1,0.2-0.2,0.3-0.2c0,0,0,0,0,0&#10;&#9;&#9;&#9;&#9;c0.3-0.2,0.6-0.5,0.9-0.7c0,0,0,0,0.1,0c0.1,0,0.1-0.1,0.2-0.1c0,0,0.1,0,0.1-0.1c0.1,0,0.1-0.1,0.2-0.1c0,0,0.1,0,0.1-0.1&#10;&#9;&#9;&#9;&#9;c0,0,0.1-0.1,0.1-0.1c0,0,0,0,0.1,0c0,0,0.1-0.1,0.1-0.1c0,0,0,0,0.1,0c0,0,0.1,0,0.1-0.1c0,0,0,0,0,0c0,0,0.1-0.1,0.1-0.1&#10;&#9;&#9;&#9;&#9;c0.2-0.1,0.4-0.2,0.6-0.3c0.1-0.1,0.3-0.1,0.5-0.2c0,0,0.1,0,0.1,0c0.2-0.1,0.3-0.1,0.5-0.2c0,0,0.1,0,0.1-0.1&#10;&#9;&#9;&#9;&#9;c0.2-0.1,0.3-0.1,0.5-0.2c0,0,0.1,0,0.1-0.1c0.2-0.1,0.3-0.1,0.5-0.2c0,0,0.1,0,0.1,0c0.2-0.1,0.4-0.1,0.6-0.2c0,0,0.1,0,0.1,0&#10;&#9;&#9;&#9;&#9;c0.2-0.1,0.4-0.1,0.6-0.2c0,0,0,0,0.1,0c0.2,0,0.4-0.1,0.7-0.1c0,0,0,0,0.1,0c0.2,0,0.4,0,0.7,0c0,0,0.1,0,0.1,0&#10;&#9;&#9;&#9;&#9;c0.1,0,0.1,0,0.2,0c-1.1-0.6-2.3-1.2-3.4-1.6c-1.7-0.7-3.8-1-6-1c-1.2,0-2.3,0.1-3.5,0.3c-2.9,0.5-6.8,2.9-8.5,3.9&#10;&#9;&#9;&#9;&#9;c0.8,0.3,2.1,1,3.8,2.4C217.2,281.9,218,283.8,218.4,284.8z M245.4,292.4c-0.2-1.8-0.5-4.3-2.5-7.2c-0.9-1.3-2.4-2.9-3.8-4.2&#10;&#9;&#9;&#9;&#9;c0,0,0,0,0,0c0.1,0.2,0.1,0.3,0.2,0.5c0.4,1.3,0.2,3.1,0.1,4.3c0,0.1,0,0.2-0.1,0.4c0,0,0,0.1,0,0.1c0,0.1,0,0.2,0,0.3&#10;&#9;&#9;&#9;&#9;c0,0,0,0.1,0,0.2c0,0.1,0,0.2-0.1,0.2c0,0.1,0,0.1,0,0.2c0,0.1,0,0.2-0.1,0.2c0,0.1,0,0.1,0,0.2c0,0.1-0.1,0.2-0.1,0.3&#10;&#9;&#9;&#9;&#9;c0,0,0,0.1,0,0.1c0,0.1-0.1,0.3-0.1,0.4c0,0,0,0,0,0c0,0.1-0.1,0.3-0.1,0.4c0,0,0,0.1-0.1,0.2c0,0.1-0.1,0.2-0.1,0.3&#10;&#9;&#9;&#9;&#9;c0,0.1,0,0.1-0.1,0.2c0,0.1-0.1,0.2-0.1,0.3c0,0.1,0,0.1-0.1,0.2c0,0.1-0.1,0.2-0.1,0.3c0,0.1,0,0.1-0.1,0.2&#10;&#9;&#9;&#9;&#9;c0,0.1-0.1,0.2-0.1,0.3c0,0,0,0.1-0.1,0.1c-0.1,0.3-0.2,0.6-0.4,0.9c0,0,0,0.1,0,0.1c0,0.1-0.1,0.2-0.1,0.3c0,0,0,0.1-0.1,0.1&#10;&#9;&#9;&#9;&#9;c0,0.1-0.1,0.2-0.1,0.3c0,0,0,0.1-0.1,0.1c0,0.1-0.1,0.2-0.1,0.3c0,0,0,0.1-0.1,0.1c-0.1,0.1-0.1,0.2-0.2,0.3c0,0,0,0.1,0,0.1&#10;&#9;&#9;&#9;&#9;c-0.1,0.3-0.3,0.6-0.4,0.8c0,0,0,0,0,0c-0.1,0.1-0.1,0.2-0.2,0.4c0,0,0,0.1,0,0.1c-0.1,0.1-0.1,0.2-0.2,0.3c0,0,0,0,0,0.1&#10;&#9;&#9;&#9;&#9;c-0.1,0.1-0.1,0.2-0.1,0.3c0,0,0,0,0,0c-0.1,0.1-0.1,0.2-0.2,0.3c0,0,0,0,0,0c-0.2,0.3-0.3,0.6-0.4,0.9c0,0,0,0,0,0&#10;&#9;&#9;&#9;&#9;c0,0.1-0.1,0.1-0.1,0.2c0,0,0,0,0,0c0,0,0,0,0,0.1c1,0.1,3,0.5,5,1.6c1.9,1,3.1,2.2,3.8,2.9C244.3,299.8,245.7,294.5,245.4,292.4&#10;&#9;&#9;&#9;&#9;z M205.8,291.7c-0.4,0.6-0.3,1.3,0.2,1.6c0.5,0.3,1.2,0.1,1.6-0.5c0.4-0.6,0-2,0-2S206.2,291.1,205.8,291.7z M224.2,307.7&#10;&#9;&#9;&#9;&#9;c-0.3,0.6-0.2,1.3,0.3,1.6c0.5,0.3,1.2,0,1.5-0.6c0.3-0.6-0.1-2-0.1-2S224.5,307.1,224.2,307.7z M213.4,287.5&#10;&#9;&#9;&#9;&#9;c-0.5,0.7-0.4,1.6,0.2,2c0.6,0.4,1.5,0.1,1.9-0.6c0.5-0.7,0-2.4,0-2.4S213.8,286.8,213.4,287.5z M231.5,304.7&#10;&#9;&#9;&#9;&#9;c-0.4,0.8-0.2,1.6,0.4,2c0.6,0.3,1.5,0,1.9-0.7c0.4-0.8-0.2-2.4-0.2-2.4S231.9,303.9,231.5,304.7z" style="opacity: 0.95; fill: rgb(141, 198, 63);"/>
			<path class="st0" d="M225.5,258.8c18,0,32.7,14.7,32.7,32.7c0,18-14.7,32.7-32.7,32.7c-18,0-32.7-14.7-32.7-32.7&#10;&#9;&#9;&#9;&#9;C192.8,273.5,207.5,258.8,225.5,258.8 M225.5,256.7c-19.2,0-34.8,15.6-34.8,34.8c0,19.2,15.6,34.8,34.8,34.8&#10;&#9;&#9;&#9;&#9;c19.2,0,34.8-15.6,34.8-34.8C260.3,272.3,244.7,256.7,225.5,256.7L225.5,256.7z" style="fill: rgb(141, 198, 63);"/>
		</g>
		<g>
			<path class="st0" d="M136.4,276.7l0.3-1.9c0-0.2,0.2-0.3,0.4-0.3c0.2,0,0.3,0.2,0.3,0.4l-0.3,1.9c0,0.2-0.2,0.3-0.4,0.3&#10;&#9;&#9;&#9;&#9;C136.5,277.1,136.4,276.9,136.4,276.7z M140.7,278.4l1.1-1.6c0.1-0.2,0.1-0.4-0.1-0.5c-0.2-0.1-0.4-0.1-0.5,0.1l-1.1,1.6&#10;&#9;&#9;&#9;&#9;c-0.1,0.2-0.1,0.4,0.1,0.5C140.3,278.6,140.6,278.6,140.7,278.4z M132.6,277.2c0.1,0.2,0.3,0.3,0.5,0.3c0.2-0.1,0.3-0.3,0.3-0.5&#10;&#9;&#9;&#9;&#9;l-0.5-1.8c-0.1-0.2-0.3-0.3-0.5-0.2c-0.2,0.1-0.3,0.3-0.3,0.5L132.6,277.2z M142.4,281.5l1.9-0.5c0.2,0,0.3-0.3,0.3-0.5&#10;&#9;&#9;&#9;&#9;c-0.1-0.2-0.3-0.3-0.5-0.3l-1.9,0.5c-0.2,0-0.3,0.2-0.3,0.5C142,281.4,142.2,281.5,142.4,281.5z M141.3,288.3&#10;&#9;&#9;&#9;&#9;c-0.2-0.1-0.4-0.1-0.5,0.1c-0.1,0.2-0.1,0.4,0.1,0.5l1.6,1.1c0.2,0.1,0.4,0.1,0.5-0.1c0.1-0.2,0.1-0.4-0.1-0.5L141.3,288.3z&#10;&#9;&#9;&#9;&#9; M144.6,285.1l-1.9-0.3c-0.2,0-0.4,0.1-0.4,0.3c0,0.2,0.1,0.4,0.3,0.4l1.9,0.3c0.2,0,0.4-0.1,0.4-0.3&#10;&#9;&#9;&#9;&#9;C144.9,285.3,144.8,285.1,144.6,285.1z M134.9,288.3c-1.1,0-2.2,0.4-2.9,1.1c-0.2,0.1-0.3,0.3-0.4,0.4c-0.2,0.2-0.3,0.4-0.5,0.7&#10;&#9;&#9;&#9;&#9;c-0.2,0.3-0.4,0.7-0.5,1.1c-0.2,0.6-0.8,0.4-0.8-0.1c0.2-0.6,0.4-1.3,0.8-1.8h0c0.1-0.2,0.3-0.4,0.5-0.6h0&#10;&#9;&#9;&#9;&#9;c0.1-0.1,0.2-0.1,0.2-0.2c0.6-0.6,1.4-1,2.2-1.3c0,0,0,0,0,0c0.1,0,0.2,0,0.2-0.1c0,0,0,0,0,0c0.1,0,0.2,0,0.2,0c0,0,0,0,0,0&#10;&#9;&#9;&#9;&#9;c0.1,0,0.1,0,0.2,0c0,0,0,0,0,0c0.1,0,0.1,0,0.2,0c0,0,0,0,0,0c0,0,0.1,0,0.1,0c0-0.1,0-0.1,0-0.1c0-2.9-1.3-5.6-3.3-7.4&#10;&#9;&#9;&#9;&#9;c-1.7-1.5-4-2.5-6.5-2.5c-3.7,0-7,2.1-8.7,5.2c0,0,0,0,0,0c0.1,0,0.2,0,0.3,0.1c0.1,0,0.1,0,0.2,0c0.1,0,0.1,0,0.2,0&#10;&#9;&#9;&#9;&#9;c0.1,0,0.1,0,0.2,0.1c0,0,0.1,0,0.1,0c0.1,0,0.1,0,0.2,0.1c0,0,0,0,0,0c0.3,0.1,0.5,0.2,0.8,0.3c0,0,0,0,0,0&#10;&#9;&#9;&#9;&#9;c1.9,0.9,3.3,2.4,4,4.3c0,0,0,0,0,0c0.1,0.2,0.2,0.5,0.2,0.8c0,0,0,0,0,0c0,0.1,0.1,0.3,0.1,0.4c0,0,0,0,0,0.1&#10;&#9;&#9;&#9;&#9;c0,0.1,0,0.2,0.1,0.4c0,0,0,0.1,0,0.1c0,0.1,0,0.2,0,0.3c0,0,0,0.1,0,0.1c0,0.1,0,0.3,0,0.5c0,0,0,0.1,0,0.1c0,0.1,0,0.1,0,0.2&#10;&#9;&#9;&#9;&#9;c0,0.1,0,0.2,0,0.3c-0.1,0.6-0.9,0.4-0.8-0.1c0-0.2,0-0.4,0-0.5c0-0.5-0.1-1-0.1-1.4c-0.1-0.3-0.1-0.5-0.2-0.8&#10;&#9;&#9;&#9;&#9;c-0.9-2.7-3.5-4.7-6.6-4.7c-3.8,0-6.9,3.1-6.9,6.9c0,3.8,3.1,6.9,6.9,6.9h3.3h0h13.8h0h2.7c2.5,0,4.5-2,4.5-4.5&#10;&#9;&#9;&#9;&#9;c0-1.4-0.6-2.6-1.6-3.4C137,288.7,136,288.3,134.9,288.3z M136.5,278.3c-1.3-0.2-2.6,0-3.7,0.7c2.1,1.9,3.4,4.7,3.4,7.8&#10;&#9;&#9;&#9;&#9;c0,0.1,0,0.1,0,0.2c1.1,0.1,2.2,0.6,3,1.3c1-0.8,1.7-2,2-3.4C141.6,281.7,139.6,278.8,136.5,278.3z M114.3,300.2&#10;&#9;&#9;&#9;&#9;c-0.7,0.7-1.1,1.5-1.2,2.3c0,0.5,0,0.8,0.2,1c0.2,0.2,0.5,0.3,1,0.3c0.5,0,0.8-0.1,1-0.3c0.2-0.2,0.3-0.5,0.2-1&#10;&#9;&#9;&#9;&#9;C115.3,301.7,115,300.9,114.3,300.2z M120.3,300.2c-0.7,0.7-1.1,1.5-1.2,2.3c0,0.5,0,0.8,0.2,1c0.2,0.2,0.5,0.3,1,0.3&#10;&#9;&#9;&#9;&#9;c0.4,0,0.8-0.1,1-0.3c0.2-0.2,0.2-0.5,0.2-1C121.4,301.7,121,300.9,120.3,300.2C120.4,300.2,120.4,300.2,120.3,300.2z&#10;&#9;&#9;&#9;&#9; M126.4,300.2c-0.7,0.7-1.1,1.5-1.2,2.3c-0.1,0.5,0,0.8,0.2,1c0.2,0.2,0.5,0.3,1,0.3c0.5,0,0.8-0.1,1-0.3c0.2-0.2,0.3-0.5,0.2-1&#10;&#9;&#9;&#9;&#9;C127.4,301.7,127.1,300.9,126.4,300.2C126.4,300.2,126.4,300.2,126.4,300.2z M133,300.2c-0.7,0.7-1.1,1.5-1.2,2.3&#10;&#9;&#9;&#9;&#9;c0,0.5,0,0.8,0.2,1c0.2,0.2,0.5,0.3,1,0.3c0.5,0,0.8-0.1,1-0.3c0.2-0.2,0.2-0.5,0.2-1C134.1,301.7,133.7,300.9,133,300.2z&#10;&#9;&#9;&#9;&#9; M117.6,305c-0.7,0.6-1.1,1.4-1.2,2.2c0,0.5,0,0.8,0.2,1c0.2,0.2,0.5,0.3,1,0.3c0.5,0,0.8-0.1,1-0.3c0.2-0.2,0.3-0.5,0.2-0.9&#10;&#9;&#9;&#9;&#9;C118.7,306.5,118.3,305.7,117.6,305z M123.6,305c-0.7,0.6-1.1,1.4-1.2,2.2c-0.1,0.5,0,0.8,0.2,1c0.2,0.2,0.5,0.3,1,0.3&#10;&#9;&#9;&#9;&#9;c0.4,0,0.8-0.1,1-0.3c0.2-0.2,0.2-0.5,0.2-0.9C124.7,306.5,124.3,305.7,123.6,305L123.6,305z M129.5,305&#10;&#9;&#9;&#9;&#9;c-0.7,0.6-1.1,1.4-1.2,2.2c0,0.5,0,0.8,0.2,1c0.2,0.2,0.5,0.3,1,0.3c0.5,0,0.8-0.1,1-0.3c0.2-0.2,0.3-0.5,0.2-0.9&#10;&#9;&#9;&#9;&#9;C130.6,306.5,130.2,305.7,129.5,305z" style="fill: rgb(141, 198, 63);"/>
			<path class="st0" d="M126.5,258.8c18,0,32.7,14.7,32.7,32.7c0,18-14.7,32.7-32.7,32.7c-18,0-32.7-14.7-32.7-32.7&#10;&#9;&#9;&#9;&#9;C93.8,273.5,108.5,258.8,126.5,258.8 M126.5,256.7c-19.2,0-34.8,15.6-34.8,34.8c0,19.2,15.6,34.8,34.8,34.8&#10;&#9;&#9;&#9;&#9;c19.2,0,34.8-15.6,34.8-34.8C161.3,272.3,145.7,256.7,126.5,256.7L126.5,256.7z" style="fill: rgb(141, 198, 63);"/>
		</g>
		<g>
			<path class="st0" d="M413.5,202.6h5.2l-6.5,8.2l4-6.7l-4.7-0.1l2.6-6.9l3.5,0.1L413.5,202.6z M434.6,185.1&#10;&#9;&#9;&#9;&#9;c-1.4,0-2.7,0.6-3.5,1.6c-0.2,0.2-0.4,0.5-0.5,0.7c-0.2,0.4-0.4,0.8-0.5,1.2c-0.2,0.6-0.9,0.4-0.8-0.1c0.2-0.7,0.4-1.3,0.8-1.9&#10;&#9;&#9;&#9;&#9;c0,0,0,0,0,0c0.2-0.2,0.3-0.4,0.5-0.6c0,0,0,0,0,0c0.7-0.7,1.6-1.3,2.5-1.5c0,0,0,0,0,0c0.1,0,0.2,0,0.3-0.1c0,0,0,0,0,0&#10;&#9;&#9;&#9;&#9;c0.1,0,0.2,0,0.2,0c0,0,0,0,0,0c0.1,0,0.2,0,0.2,0c0,0,0,0,0.1,0c0.1,0,0.2,0,0.2,0c0,0,0,0,0,0c0.1,0,0.2,0,0.3,0&#10;&#9;&#9;&#9;&#9;c-0.1,0-0.1,0-0.2,0c0-0.1,0-0.1,0-0.2c0-5.6-4.6-10.2-10.2-10.2c-3.9,0-7.3,2.2-9,5.4c0,0,0,0,0.1,0c0.1,0,0.2,0,0.3,0.1&#10;&#9;&#9;&#9;&#9;c0.1,0,0.1,0,0.2,0c0.1,0,0.1,0,0.2,0c0.1,0,0.1,0,0.2,0c0,0,0.1,0,0.1,0c0.1,0,0.1,0.1,0.2,0.1c0,0,0,0,0.1,0&#10;&#9;&#9;&#9;&#9;c0.3,0.1,0.5,0.2,0.8,0.3l0,0c1.9,0.9,3.5,2.5,4.2,4.5c0,0,0,0,0,0c0.1,0.2,0.2,0.5,0.2,0.8l0,0c0,0.2,0.1,0.3,0.1,0.5&#10;&#9;&#9;&#9;&#9;c0,0,0,0,0,0.1c0,0.1,0,0.2,0.1,0.4c0,0,0,0.1,0,0.1c0,0.1,0,0.2,0,0.4c0,0,0,0.1,0,0.1c0,0.2,0,0.3,0,0.5c0,0,0,0.1,0,0.1&#10;&#9;&#9;&#9;&#9;c0,0.1,0,0.2,0,0.2c0,0.1,0,0.2,0,0.3c-0.1,0.6-0.9,0.5-0.8-0.1c0-0.2,0-0.4,0-0.6c0-0.5-0.1-1-0.2-1.5c-0.1-0.3-0.1-0.5-0.2-0.8&#10;&#9;&#9;&#9;&#9;c-1-2.8-3.7-4.9-6.8-4.9c-4,0-7.2,3.2-7.2,7.2c0,4,3.2,7.2,7.2,7.2h3.5h0h14.3h0h2.8c2.6,0,4.6-2.1,4.6-4.6&#10;&#9;&#9;&#9;&#9;S437.1,185.1,434.6,185.1z M423.5,198.2c0.2-0.3,0.1-0.7-0.2-0.9c-0.3-0.2-0.7-0.1-0.9,0.2l-2.3,4.1c-0.2,0.3-0.1,0.7,0.2,0.9&#10;&#9;&#9;&#9;&#9;c0.3,0.2,0.7,0.1,0.9-0.2L423.5,198.2z M426.3,197.2c-0.3-0.2-0.7-0.1-0.9,0.2l-2.3,4.1c-0.2,0.3-0.1,0.7,0.2,0.9&#10;&#9;&#9;&#9;&#9;c0.3,0.2,0.7,0.1,0.9-0.2l2.3-4.1C426.8,197.8,426.7,197.4,426.3,197.2z M429.5,197.2c-0.3-0.2-0.7-0.1-0.9,0.2l-2.3,4.1&#10;&#9;&#9;&#9;&#9;c-0.2,0.3-0.1,0.7,0.2,0.9c0.3,0.2,0.7,0.1,0.9-0.2l2.3-4.1C429.9,197.8,429.8,197.4,429.5,197.2z M429.6,202.5&#10;&#9;&#9;&#9;&#9;c0.3,0.2,0.7,0.1,0.9-0.2l2.3-4.1c0.2-0.3,0.1-0.7-0.2-0.9c-0.3-0.2-0.7-0.1-0.9,0.2l-2.3,4.1&#10;&#9;&#9;&#9;&#9;C429.2,201.9,429.3,202.3,429.6,202.5z M435.8,197.2c-0.3-0.2-0.7-0.1-0.9,0.2l-2.3,4.1c-0.2,0.3-0.1,0.7,0.2,0.9&#10;&#9;&#9;&#9;&#9;c0.3,0.2,0.7,0.1,0.9-0.2l2.3-4.1C436.2,197.8,436.1,197.4,435.8,197.2z M424.4,203.4c-0.3-0.2-0.7-0.1-0.9,0.3l-2.3,4.1&#10;&#9;&#9;&#9;&#9;c-0.2,0.3-0.1,0.7,0.2,0.9c0.3,0.2,0.7,0.1,0.9-0.2l2.3-4.1C424.8,204,424.7,203.6,424.4,203.4z M427.5,203.4&#10;&#9;&#9;&#9;&#9;c-0.3-0.2-0.7-0.1-0.9,0.3l-2.3,4.1c-0.2,0.3-0.1,0.7,0.2,0.9c0.3,0.2,0.7,0.1,0.9-0.2l2.3-4.1C428,204,427.8,203.6,427.5,203.4z&#10;&#9;&#9;&#9;&#9; M430.7,203.4c-0.3-0.2-0.7-0.1-0.9,0.3l-2.3,4.1c-0.2,0.3-0.1,0.7,0.2,0.9c0.3,0.2,0.7,0.1,0.9-0.2l2.3-4.1&#10;&#9;&#9;&#9;&#9;C431.1,204,431,203.6,430.7,203.4z" style="fill: rgb(141, 198, 63);"/>
			<path class="st0" d="M423.5,159.8c18,0,32.7,14.7,32.7,32.7c0,18-14.7,32.7-32.7,32.7c-18,0-32.7-14.7-32.7-32.7&#10;&#9;&#9;&#9;&#9;C390.8,174.5,405.5,159.8,423.5,159.8 M423.5,157.7c-19.2,0-34.8,15.6-34.8,34.8c0,19.2,15.6,34.8,34.8,34.8&#10;&#9;&#9;&#9;&#9;c19.2,0,34.8-15.6,34.8-34.8C458.3,173.3,442.7,157.7,423.5,157.7L423.5,157.7z" style="fill: rgb(141, 198, 63);"/>
		</g>
		<g>
			<path class="st0" d="M320,202.7h5.3l-6.5,8.2l4-6.7l-4.7-0.1l2.6-6.9l3.5,0.1L320,202.7z M331.4,197.4l-2.3-0.1l-1.7,4.6l3.1,0&#10;&#9;&#9;&#9;&#9;l-2.6,4.4l4.3-5.4h-3.5L331.4,197.4z M336.1,185.3c-1.4,0-2.7,0.6-3.5,1.6c-0.2,0.2-0.4,0.5-0.5,0.7c-0.2,0.4-0.4,0.8-0.5,1.2&#10;&#9;&#9;&#9;&#9;c-0.2,0.6-0.9,0.4-0.8-0.1c0.2-0.7,0.4-1.3,0.8-1.9c0,0,0,0,0,0c0.2-0.2,0.3-0.4,0.5-0.6c0,0,0,0,0,0c0.7-0.7,1.6-1.3,2.6-1.5&#10;&#9;&#9;&#9;&#9;c0,0,0,0,0,0c0.1,0,0.2,0,0.3-0.1c0,0,0,0,0,0c0.1,0,0.2,0,0.2,0c0,0,0,0,0,0c0.1,0,0.2,0,0.2,0c0,0,0,0,0.1,0c0.1,0,0.2,0,0.2,0&#10;&#9;&#9;&#9;&#9;c0,0,0,0,0,0c0.1,0,0.2,0,0.3,0c-0.1,0-0.1,0-0.2,0c0,0,0-0.1,0-0.2c0-5.6-4.6-10.2-10.2-10.2c-3.9,0-7.3,2.2-9,5.3c0,0,0,0,0,0&#10;&#9;&#9;&#9;&#9;c0.1,0,0.2,0,0.3,0.1c0.1,0,0.1,0,0.2,0c0.1,0,0.1,0,0.2,0c0.1,0,0.1,0,0.2,0c0,0,0.1,0,0.1,0c0.1,0,0.1,0,0.2,0.1c0,0,0,0,0.1,0&#10;&#9;&#9;&#9;&#9;c0.3,0.1,0.5,0.2,0.8,0.3h0c1.9,0.9,3.5,2.5,4.2,4.5c0,0,0,0,0,0c0.1,0.3,0.2,0.5,0.2,0.8c0,0,0,0,0,0c0,0.1,0.1,0.3,0.1,0.5&#10;&#9;&#9;&#9;&#9;c0,0,0,0,0,0.1c0,0.1,0,0.3,0.1,0.4c0,0,0,0.1,0,0.1c0,0.1,0,0.2,0,0.4c0,0,0,0.1,0,0.1c0,0.2,0,0.3,0,0.5c0,0,0,0.1,0,0.1&#10;&#9;&#9;&#9;&#9;c0,0.1,0,0.2,0,0.2c0,0.1,0,0.2,0,0.3c-0.1,0.6-0.9,0.4-0.8-0.1c0-0.2,0-0.4,0-0.6c0-0.5-0.1-1-0.2-1.5c-0.1-0.3-0.1-0.6-0.2-0.8&#10;&#9;&#9;&#9;&#9;c-1-2.8-3.6-4.9-6.8-4.9c-4,0-7.2,3.2-7.2,7.2c0,4,3.2,7.2,7.2,7.2h3.5h0h14.3h0h2.8c2.6,0,4.6-2.1,4.6-4.6&#10;&#9;&#9;&#9;&#9;C340.7,187.4,338.6,185.3,336.1,185.3z" style="fill: rgb(141, 198, 63);"/>
			<path class="st0" d="M324.5,159.8c18,0,32.7,14.7,32.7,32.7c0,18-14.7,32.7-32.7,32.7c-18,0-32.7-14.7-32.7-32.7&#10;&#9;&#9;&#9;&#9;C291.8,174.5,306.5,159.8,324.5,159.8 M324.5,157.7c-19.2,0-34.8,15.6-34.8,34.8c0,19.2,15.6,34.8,34.8,34.8&#10;&#9;&#9;&#9;&#9;c19.2,0,34.8-15.6,34.8-34.8C359.3,173.3,343.7,157.7,324.5,157.7L324.5,157.7z" style="fill: rgb(141, 198, 63);"/>
		</g>
		<g>
			<path class="st0" d="M232.6,184.6c1.2-0.7,2.7-1,4.3-0.7c3.5,0.6,5.9,3.9,5.3,7.5c-0.3,1.6-1.1,3-2.3,3.9&#10;&#9;&#9;&#9;&#9;c-0.9-0.8-2.1-1.4-3.4-1.5c0-0.1,0-0.1,0-0.2C236.6,189.9,235,186.8,232.6,184.6z M237.2,182.5c0.2,0,0.5-0.1,0.5-0.4l0.4-2.2&#10;&#9;&#9;&#9;&#9;c0-0.2-0.1-0.5-0.4-0.5c-0.2,0-0.5,0.1-0.5,0.4l-0.4,2.2C236.8,182.2,236.9,182.4,237.2,182.5z M232.4,182.5&#10;&#9;&#9;&#9;&#9;c0.1,0.2,0.3,0.4,0.5,0.3c0.2-0.1,0.4-0.3,0.3-0.5l-0.6-2.1c-0.1-0.2-0.3-0.4-0.5-0.3c-0.2,0.1-0.4,0.3-0.3,0.5L232.4,182.5z&#10;&#9;&#9;&#9;&#9; M246.2,191.6l-2.2-0.4c-0.2,0-0.5,0.1-0.5,0.4c0,0.2,0.1,0.5,0.4,0.5l2.2,0.4c0.2,0,0.5-0.1,0.5-0.4&#10;&#9;&#9;&#9;&#9;C246.6,191.9,246.4,191.6,246.2,191.6z M241.7,184l1.3-1.8c0.1-0.2,0.1-0.5-0.1-0.6c-0.2-0.1-0.5-0.1-0.6,0.1l-1.3,1.8&#10;&#9;&#9;&#9;&#9;c-0.1,0.2-0.1,0.5,0.1,0.6C241.3,184.2,241.6,184.2,241.7,184z M243.7,187.5l2.1-0.5c0.2-0.1,0.4-0.3,0.3-0.5&#10;&#9;&#9;&#9;&#9;c-0.1-0.2-0.3-0.4-0.5-0.3l-2.1,0.5c-0.2,0.1-0.4,0.3-0.3,0.5C243.3,187.4,243.5,187.5,243.7,187.5z M242.4,195.3&#10;&#9;&#9;&#9;&#9;c-0.2-0.1-0.5-0.1-0.6,0.1c-0.1,0.2-0.1,0.5,0.1,0.6l1.8,1.2c0.2,0.1,0.5,0.1,0.6-0.1c0.1-0.2,0.1-0.5-0.1-0.6L242.4,195.3z&#10;&#9;&#9;&#9;&#9; M238.4,196.5c-0.9-0.8-2-1.2-3.3-1.2c-1.3,0-2.5,0.5-3.4,1.3c-0.2,0.2-0.3,0.3-0.5,0.5c-0.2,0.2-0.4,0.5-0.6,0.8&#10;&#9;&#9;&#9;&#9;c-0.2,0.4-0.4,0.8-0.5,1.3c-0.2,0.6-1,0.4-0.9-0.1c0.2-0.7,0.5-1.4,0.9-2c0,0,0,0,0,0c0.2-0.2,0.4-0.5,0.6-0.7l0,0&#10;&#9;&#9;&#9;&#9;c0.1-0.1,0.2-0.2,0.3-0.2c0.7-0.7,1.6-1.2,2.5-1.4c0,0,0,0,0,0c0.1,0,0.2,0,0.3-0.1c0,0,0,0,0,0c0.1,0,0.2,0,0.3,0c0,0,0,0,0,0&#10;&#9;&#9;&#9;&#9;c0.1,0,0.2,0,0.3,0c0,0,0,0,0.1,0c0.1,0,0.2,0,0.3,0c0,0,0,0,0.1,0c0,0,0.1,0,0.1,0c0-0.1,0-0.1,0-0.2c0-3.3-1.5-6.3-3.8-8.4&#10;&#9;&#9;&#9;&#9;c-2-1.8-4.6-2.8-7.5-2.8c-4.3,0-8,2.4-9.9,5.9c0,0,0,0,0.1,0c0.1,0,0.2,0,0.4,0.1c0.1,0,0.1,0,0.2,0c0.1,0,0.1,0,0.2,0&#10;&#9;&#9;&#9;&#9;c0.1,0,0.1,0,0.2,0.1c0,0,0.1,0,0.1,0c0.1,0,0.2,0,0.2,0.1c0,0,0,0,0.1,0c0.3,0.1,0.6,0.2,0.9,0.3c0,0,0,0,0,0&#10;&#9;&#9;&#9;&#9;c2.1,1,3.8,2.8,4.6,5c0,0,0,0,0,0c0.1,0.3,0.2,0.6,0.3,0.9c0,0,0,0,0,0c0,0.2,0.1,0.3,0.1,0.5c0,0,0,0.1,0,0.1&#10;&#9;&#9;&#9;&#9;c0,0.1,0,0.3,0.1,0.4c0,0,0,0.1,0,0.1c0,0.1,0,0.3,0,0.4c0,0,0,0.1,0,0.1c0,0.2,0,0.3,0,0.5c0,0,0,0.1,0,0.1c0,0.1,0,0.2,0,0.3&#10;&#9;&#9;&#9;&#9;c0,0.1,0,0.2,0,0.3c-0.1,0.7-1,0.5-0.9-0.1c0-0.2,0-0.4,0-0.6c0-0.6-0.1-1.1-0.2-1.6c-0.1-0.3-0.1-0.6-0.2-0.9&#10;&#9;&#9;&#9;&#9;c-1.1-3.1-4-5.4-7.5-5.4c-4.4,0-7.9,3.5-7.9,7.9c0,4.4,3.5,7.9,7.9,7.9h3.8h0H232h0h3.1c2.8,0,5.1-2.3,5.1-5.1&#10;&#9;&#9;&#9;&#9;C240.2,198.9,239.5,197.5,238.4,196.5z" style="fill: rgb(141, 198, 63);"/>
			<path class="st0" d="M225.5,159.8c18,0,32.7,14.7,32.7,32.7c0,18-14.7,32.7-32.7,32.7c-18,0-32.7-14.7-32.7-32.7&#10;&#9;&#9;&#9;&#9;C192.8,174.5,207.5,159.8,225.5,159.8 M225.5,157.7c-19.2,0-34.8,15.6-34.8,34.8c0,19.2,15.6,34.8,34.8,34.8&#10;&#9;&#9;&#9;&#9;c19.2,0,34.8-15.6,34.8-34.8C260.3,173.3,244.7,157.7,225.5,157.7L225.5,157.7z" style="fill: rgb(141, 198, 63);"/>
		</g>
		<g>
			<path class="st0" d="M138.5,192.7c0,6.6-5.3,11.9-11.9,11.9c-6.6,0-11.9-5.3-11.9-11.9c0-6.5,5.3-11.9,11.9-11.9&#10;&#9;&#9;&#9;&#9;C133.2,180.8,138.5,186.1,138.5,192.7z M126.7,178.8h0.3c0.2,0,0.3-0.1,0.3-0.3v-4c0-0.2-0.2-0.3-0.3-0.3h-0.3&#10;&#9;&#9;&#9;&#9;c-0.2,0-0.3,0.2-0.3,0.3v4C126.4,178.7,126.5,178.8,126.7,178.8z M119,180.7c0.1,0.2,0.3,0.2,0.5,0.1l0.3-0.2&#10;&#9;&#9;&#9;&#9;c0.2-0.1,0.2-0.3,0.1-0.5l-1.9-3.5c-0.1-0.2-0.3-0.2-0.5-0.1l-0.3,0.2c-0.2,0.1-0.2,0.3-0.1,0.5L119,180.7z M113.7,186.5&#10;&#9;&#9;&#9;&#9;c0.2,0.1,0.4,0,0.5-0.1l0.2-0.3c0.1-0.2,0-0.4-0.1-0.5l-3.4-2.1c-0.2-0.1-0.4,0-0.5,0.1l-0.2,0.3c-0.1,0.2,0,0.4,0.1,0.5&#10;&#9;&#9;&#9;&#9;L113.7,186.5z M112.9,194.2l0-0.3c0-0.2-0.2-0.3-0.4-0.3l-3.9,0.4c-0.2,0-0.3,0.2-0.3,0.4l0,0.3c0,0.2,0.2,0.3,0.4,0.3l3.9-0.4&#10;&#9;&#9;&#9;&#9;C112.8,194.6,112.9,194.4,112.9,194.2z M116.5,202c-0.1-0.1-0.3-0.2-0.5-0.1l-3.2,2.4c-0.1,0.1-0.2,0.3-0.1,0.5l0.2,0.3&#10;&#9;&#9;&#9;&#9;c0.1,0.1,0.3,0.2,0.5,0.1l3.2-2.4c0.1-0.1,0.2-0.3,0.1-0.5L116.5,202z M124.5,206.4l-0.3-0.1c-0.2,0-0.4,0.1-0.4,0.3l-0.6,3.9&#10;&#9;&#9;&#9;&#9;c0,0.2,0.1,0.4,0.3,0.4l0.3,0.1c0.2,0,0.4-0.1,0.4-0.3l0.6-3.9C124.8,206.6,124.7,206.4,124.5,206.4z M132.2,205.4l-0.3,0.1&#10;&#9;&#9;&#9;&#9;c-0.2,0.1-0.3,0.3-0.2,0.4l1.5,3.7c0.1,0.2,0.3,0.3,0.4,0.2l0.3-0.1c0.2-0.1,0.3-0.3,0.2-0.4l-1.5-3.7&#10;&#9;&#9;&#9;&#9;C132.6,205.5,132.4,205.4,132.2,205.4z M138.9,199.9c-0.2-0.1-0.4-0.1-0.5,0.1l-0.2,0.3c-0.1,0.2-0.1,0.4,0.1,0.5l3.3,2.3&#10;&#9;&#9;&#9;&#9;c0.2,0.1,0.4,0.1,0.5-0.1l0.2-0.3c0.1-0.2,0.1-0.4-0.1-0.5L138.9,199.9z M144.8,193.2l-4-0.2c-0.2,0-0.3,0.1-0.4,0.3l0,0.3&#10;&#9;&#9;&#9;&#9;c0,0.2,0.1,0.3,0.3,0.4l4,0.2c0.2,0,0.3-0.1,0.4-0.3l0-0.3C145.2,193.3,145,193.2,144.8,193.2z M139.7,187.1l3.7-1.5&#10;&#9;&#9;&#9;&#9;c0.2-0.1,0.3-0.3,0.2-0.4l-0.1-0.3c-0.1-0.2-0.3-0.3-0.4-0.2l-3.7,1.5c-0.2,0.1-0.3,0.3-0.2,0.4l0.1,0.3&#10;&#9;&#9;&#9;&#9;C139.3,187.1,139.5,187.2,139.7,187.1z M134.9,181.5c0.1,0.1,0.4,0.1,0.5-0.1l2.4-3.1c0.1-0.1,0.1-0.4-0.1-0.5l-0.3-0.2&#10;&#9;&#9;&#9;&#9;c-0.1-0.1-0.4-0.1-0.5,0.1l-2.4,3.1c-0.1,0.1-0.1,0.4,0.1,0.5L134.9,181.5z" style="fill: rgb(141, 198, 63);"/>
			<path class="st0" d="M126.5,159.8c18,0,32.7,14.7,32.7,32.7c0,18-14.7,32.7-32.7,32.7c-18,0-32.7-14.7-32.7-32.7&#10;&#9;&#9;&#9;&#9;C93.8,174.5,108.5,159.8,126.5,159.8 M126.5,157.7c-19.2,0-34.8,15.6-34.8,34.8c0,19.2,15.6,34.8,34.8,34.8&#10;&#9;&#9;&#9;&#9;c19.2,0,34.8-15.6,34.8-34.8C161.3,173.3,145.7,157.7,126.5,157.7L126.5,157.7z" style="fill: rgb(141, 198, 63);"/>
		</g>
		<g>
			<path class="st2" d="M451,98.7l-11-4.6l1.9,4.4h-9.7h-6.9l-0.3-0.8c0,0,0-1.5,0.3-1.2c0,0,3.2-2.1,3.1-2.4c0,0,2.3-1.1,2-1.5&#10;&#9;&#9;&#9;&#9;c0,0,2.1-1.6,2-2.5c0,0,1.8-3.1,0.8-4.4c0,0,0.1-2.5-0.4-2.5c0,0,1.1-1.5,0.2-2c0,0,1.1,0.1,1.3,0.2c0.1-0.2-0.2-0.7-0.8-0.8&#10;&#9;&#9;&#9;&#9;c0,0,0.9-1.4-0.1-2c0,0,0.4-1.2-0.3-1c0,0,0.1,1-0.4,0.8c0,0,0.4-1.5-0.3-1.2c0,0,0.4,0.6-0.4,0.7c0,0,0.1-1.4-0.4-1&#10;&#9;&#9;&#9;&#9;c0,0,0.1,0.7-0.1,0.8c0,0-0.2-1.1-0.5-0.8c0,0,0.2,0.5,0,0.9c0,0-0.3-1-0.5-0.8c0,0-0.3,0.6,0,1c0,0-0.5-0.5-0.6-0.1&#10;&#9;&#9;&#9;&#9;c0,0,0.1,1.2,1.4,1.5c0,0-1.6,0.2-2.1,1.2c0,0-3.8,3.5-3.4,5.1c0,0-1.7,2.5-3.1,0.8c0,0-3.6-4.6-7.2-4.6c0,0-9.4,0.6-7.5,10.5&#10;&#9;&#9;&#9;&#9;c0,0,0-6,0.9-5.1c0,0-0.6,4.7,0.8,5.7c0,0-2.4-5.5,3.2-7.1c0,0-3.2,3.5-1.3,8c0,0,0-5.2,0.9-5.4c0,0,0.4,1,0.6,0.9&#10;&#9;&#9;&#9;&#9;c0,0-0.1,3.7,0.3,3.8c0,0-0.4-3.6,0.2-3.5c0,0,1.1,1,1.3,0.7c0,0-0.3,2.4,0.1,2.4c0,0,0.2-2.4,0.6-2.2c0,0-0.2,1.7,0.3,1.7&#10;&#9;&#9;&#9;&#9;c0,0,0-1.5,0.3-1.2c0,0-0.1,2.2,0.4,2.2c0,0-0.2-2.6,0.4-2.2l0.4,0.2c0,0-0.9,3.5,0.1,3.6c0,0,0.2-2.9,0.8-2.4&#10;&#9;&#9;&#9;&#9;c0,0,0.5,1.5-0.1,1.8c0,0,0.5,0.3,0.6-0.4c0,0,0,1.4,0.5,1.2c0,0-0.3-2.2,0.3-2c0,0,0.1,2.4,0,3.3c0.3-0.5,0.8-2.3,0.8-2.3&#10;&#9;&#9;&#9;&#9;c0,0,0.4,1.4,0.3,1.7c0.2-0.1,0.4-0.2,0.3-0.5c0,0,0.4,0.4,0.5,0.2c0-0.2,0.1-0.3,0.1-0.3c0,0.2,0,0.5,0,0.5&#10;&#9;&#9;&#9;&#9;c0.2,0,0.6,0.1,0.6-0.4c0,0,0,1.4,0.3,1.2c0,0,0.2-0.5,0.3-1c0,0,1.2,1.1,1.2,0.5c0,0,0.5,1.1,0,1.2c0,0-0.1,0.7,0,1.3h-7.6h-7.5&#10;&#9;&#9;&#9;&#9;v-0.1l-5.8-3.5H396l3.7,3.7h-2.4V99h2.4l-3.7,3.7h7.1l5.8-3.5V99h15.7v7.6c-0.8,0.1-1.5,0.8-1.5,1.7c0,1,0.8,1.7,1.7,1.7&#10;&#9;&#9;&#9;&#9;c1,0,1.7-0.8,1.7-1.7c0-0.9-0.6-1.6-1.5-1.7V99h16.8l-1.8,4.3L451,98.7z" style="fill-rule: evenodd; clip-rule: evenodd; fill: rgb(141, 198, 63);"/>
			<path class="st0" d="M423.5,60.8c18,0,32.7,14.7,32.7,32.7c0,18-14.7,32.7-32.7,32.7c-18,0-32.7-14.7-32.7-32.7&#10;&#9;&#9;&#9;&#9;C390.8,75.5,405.5,60.8,423.5,60.8 M423.5,58.7c-19.2,0-34.8,15.6-34.8,34.8c0,19.2,15.6,34.8,34.8,34.8&#10;&#9;&#9;&#9;&#9;c19.2,0,34.8-15.6,34.8-34.8C458.3,74.3,442.7,58.7,423.5,58.7L423.5,58.7z" style="fill: rgb(141, 198, 63);"/>
		</g>
		<g>
			<path class="st0" d="M327,79.2c0,0,0-0.1,0-0.1l0-0.5l-2.7-2.4c-0.2-0.1-0.8-0.6-1-0.6l-15.8,3.2c-0.1,0-0.3-0.1-0.5-0.1&#10;&#9;&#9;&#9;&#9;c-0.5,0-0.9,0.2-0.9,0.4v32.5h0.9V80.3l8.3,10.1c0,0.4,0,0.6,0.1,0.8c0,0.2,0.2,0.4,0.3,0.5l3.1,0.9l0.4-0.3&#10;&#9;&#9;&#9;&#9;c1.5-0.9,3.9-3.6,5.2-5.9C325.7,84.3,327,80.9,327,79.2z M318.3,83c-1.3,2.4-2.3,4.7-2.7,6.3l-7.7-9.6v-0.2l15.2-3.1&#10;&#9;&#9;&#9;&#9;C321.9,77.3,320.1,79.8,318.3,83z M335.6,92.7c-1.3,2.3-1.8,2.8-3.2,3.7l-0.4,0.3c-0.9-0.3-1.7-0.5-2.5-0.8c0.1,0,0.1,0,0.1,0&#10;&#9;&#9;&#9;&#9;c0,0,0,0,0,0c1.3,0,2.2-1.3,3.9-4.3c1.3-2.3,1.8-3.6,1.8-4.6c0-0.6-0.2-1-0.5-1.4c0.7,0.6,1.6,1.4,2.5,2.3l0,0.4&#10;&#9;&#9;&#9;&#9;C337.2,90.1,336.9,90.3,335.6,92.7z M329.9,89.6c-1.2,2.2-2.8,3.8-4.3,4.7l-0.4,0.2l-2.7-0.8c0.1,0,0.1,0,0.2,0c0,0,0,0,0,0&#10;&#9;&#9;&#9;&#9;c1.5,0,3.2-2,5.1-5.3c1.5-2.7,2.3-4.7,2.3-6.2c0-0.4-0.1-0.8-0.3-1.1l2.1,1.9l0,0.5c0,0.1,0,0.1,0,0.2&#10;&#9;&#9;&#9;&#9;C332,85.4,331.1,87.4,329.9,89.6z M342.9,93.8l-0.4,1.2l-0.6,1.3l-0.6,1l-1,1.3c-0.2,0.3-2.6-0.2-5.3-1c0.6,0.1,1.1,0.3,1.3,0.3&#10;&#9;&#9;&#9;&#9;c0.2,0.1,0.4,0.1,0.6,0.1c0,0,0,0,0,0c0.5,0,0.9-0.3,1.3-0.8c0.4-0.5,0.8-1.3,1.4-2.4c0.8-1.5,1.2-2.4,1.2-3.1&#10;&#9;&#9;&#9;&#9;c0-0.3-0.1-0.5-0.2-0.7C342,92.4,343,93.5,342.9,93.8z" style="fill: rgb(141, 198, 63);"/>
			<path class="st0" d="M324.5,60.8c18,0,32.7,14.7,32.7,32.7c0,18-14.7,32.7-32.7,32.7c-18,0-32.7-14.7-32.7-32.7&#10;&#9;&#9;&#9;&#9;C291.8,75.5,306.5,60.8,324.5,60.8 M324.5,58.7c-19.2,0-34.8,15.6-34.8,34.8c0,19.2,15.6,34.8,34.8,34.8&#10;&#9;&#9;&#9;&#9;c19.2,0,34.8-15.6,34.8-34.8C359.3,74.3,343.7,58.7,324.5,58.7L324.5,58.7z" style="fill: rgb(141, 198, 63);"/>
		</g>
		<g>
			<path class="st0" d="M229.9,102.1V74.8c0-2.4-2-4.4-4.5-4.4c-2.5,0-4.5,2-4.5,4.4v27.5c-2.1,1.5-3.3,3.9-3.3,6.4&#10;&#9;&#9;&#9;&#9;c0,4.3,3.5,7.9,7.9,7.9c4.3,0,7.9-3.5,7.9-7.9C233.4,106,232.1,103.6,229.9,102.1z M225.5,115.4c-3.7,0-6.7-3-6.7-6.7&#10;&#9;&#9;&#9;&#9;c0-2.5,1.3-4.6,3.3-5.8V74.8c0-1.8,1.5-3.2,3.3-3.2c1.8,0,3.3,1.4,3.3,3.2v28c2.1,1.1,3.5,3.4,3.5,5.9&#10;&#9;&#9;&#9;&#9;C232.2,112.4,229.2,115.4,225.5,115.4z M224.9,76.8h-2.5v-1h2.5V76.8z M224.8,85.8h-2.4v-1h2.4V85.8z M223.9,79.8h-1.6v-1h1.6&#10;&#9;&#9;&#9;&#9;V79.8z M223.9,82.9h-1.6v-1h1.6V82.9z M222.4,88.1h1.6v1h-1.6V88.1z M229.7,108.7c0,2.4-1.9,4.3-4.3,4.3c-2.4,0-4.3-1.9-4.3-4.3&#10;&#9;&#9;&#9;&#9;c0-1.8,1.1-3.3,2.6-4V91.1c0-0.9,0.9-0.9,1.9-0.9c1,0,1.6,0,1.6,0.9v13.6C228.7,105.4,229.7,106.9,229.7,108.7z" style="fill: rgb(141, 198, 63);"/>
			<path class="st0" d="M225.5,60.8c18,0,32.7,14.7,32.7,32.7c0,18-14.7,32.7-32.7,32.7c-18,0-32.7-14.7-32.7-32.7&#10;&#9;&#9;&#9;&#9;C192.8,75.5,207.5,60.8,225.5,60.8 M225.5,58.7c-19.2,0-34.8,15.6-34.8,34.8c0,19.2,15.6,34.8,34.8,34.8&#10;&#9;&#9;&#9;&#9;c19.2,0,34.8-15.6,34.8-34.8C260.3,74.3,244.7,58.7,225.5,58.7L225.5,58.7z" style="fill: rgb(141, 198, 63);"/>
		</g>
		<g>
			<path class="st0" d="M116.9,78.1c-0.1-0.2,0-0.4,0.1-0.5l0.3-0.2c0.2-0.1,0.4,0,0.5,0.1l1.9,3.5c0.1,0.2,0,0.4-0.1,0.5l-0.3,0.2&#10;&#9;&#9;&#9;&#9;c-0.2,0.1-0.4,0-0.5-0.1L116.9,78.1z M126.5,79.7h0.3c0.2,0,0.3-0.2,0.3-0.3v-4c0-0.2-0.1-0.3-0.3-0.3h-0.3&#10;&#9;&#9;&#9;&#9;c-0.2,0-0.3,0.2-0.3,0.3v4C126.2,79.6,126.3,79.7,126.5,79.7z M113.5,87.4c0.2,0.1,0.4,0,0.5-0.1l0.2-0.3c0.1-0.2,0-0.4-0.1-0.5&#10;&#9;&#9;&#9;&#9;l-3.4-2.1c-0.2-0.1-0.4,0-0.5,0.1l-0.2,0.3c-0.1,0.2,0,0.4,0.1,0.5L113.5,87.4z M112.7,95.1l0-0.3c0-0.2-0.2-0.3-0.4-0.3&#10;&#9;&#9;&#9;&#9;l-3.9,0.4c-0.2,0-0.3,0.2-0.3,0.4l0,0.3c0,0.2,0.2,0.3,0.4,0.3l3.9-0.4C112.6,95.5,112.7,95.3,112.7,95.1z M134.7,82.4&#10;&#9;&#9;&#9;&#9;c0.1,0.1,0.4,0.1,0.5-0.1l2.4-3.1c0.1-0.1,0.1-0.4-0.1-0.5l-0.3-0.2c-0.1-0.1-0.4-0.1-0.5,0.1l-2.4,3.1c-0.1,0.1-0.1,0.4,0.1,0.5&#10;&#9;&#9;&#9;&#9;L134.7,82.4z M139.5,88l3.7-1.5c0.2-0.1,0.3-0.3,0.2-0.4l-0.1-0.3c-0.1-0.2-0.3-0.3-0.4-0.2l-3.7,1.5c-0.2,0.1-0.3,0.3-0.2,0.4&#10;&#9;&#9;&#9;&#9;l0.1,0.3C139.1,88,139.3,88.1,139.5,88z M138.3,93.6c0,6.6-5.3,11.9-11.9,11.9s-11.9-5.3-11.9-11.9c0-6.6,5.3-11.9,11.9-11.9&#10;&#9;&#9;&#9;&#9;S138.3,87,138.3,93.6z M125.8,90.1h-1.5v3.8c0,1.2-0.4,1.7-1.2,1.7c-0.8,0-1.2-0.6-1.2-1.7v-3.8h-1.5v3.7c0,2.1,1,3,2.6,3&#10;&#9;&#9;&#9;&#9;c1.7,0,2.8-1,2.8-3V90.1z M132.6,90.1H131l-0.8,2.8c-0.2,0.8-0.4,1.5-0.6,2.3h0c-0.2-0.8-0.4-1.6-0.6-2.4l-0.8-2.8h-1.6l2.1,6.6&#10;&#9;&#9;&#9;&#9;h1.8L132.6,90.1z M144.6,94.1l-4-0.2c-0.2,0-0.3,0.1-0.4,0.3l0,0.3c0,0.2,0.1,0.3,0.3,0.4l4,0.2c0.2,0,0.3-0.1,0.4-0.3l0-0.3&#10;&#9;&#9;&#9;&#9;C145,94.2,144.8,94.1,144.6,94.1z M138.7,100.8c-0.2-0.1-0.4-0.1-0.5,0.1l-0.2,0.3c-0.1,0.2-0.1,0.4,0.1,0.5l3.3,2.2&#10;&#9;&#9;&#9;&#9;c0.2,0.1,0.4,0.1,0.5-0.1l0.2-0.3c0.1-0.2,0.1-0.4-0.1-0.5L138.7,100.8z M132,106.4l-0.3,0.1c-0.2,0.1-0.3,0.3-0.2,0.4l1.5,3.7&#10;&#9;&#9;&#9;&#9;c0.1,0.2,0.3,0.3,0.4,0.2l0.3-0.1c0.2-0.1,0.3-0.3,0.2-0.4l-1.5-3.7C132.4,106.4,132.2,106.3,132,106.4z M116.3,102.9&#10;&#9;&#9;&#9;&#9;c-0.1-0.2-0.3-0.2-0.5-0.1l-3.2,2.4c-0.2,0.1-0.2,0.3-0.1,0.5l0.2,0.3c0.1,0.1,0.3,0.2,0.5,0.1l3.2-2.4c0.1-0.1,0.2-0.3,0.1-0.5&#10;&#9;&#9;&#9;&#9;L116.3,102.9z M124.3,107.3l-0.3,0c-0.2,0-0.4,0.1-0.4,0.3l-0.6,3.9c0,0.2,0.1,0.4,0.3,0.4l0.3,0.1c0.2,0,0.4-0.1,0.4-0.3&#10;&#9;&#9;&#9;&#9;l0.6-3.9C124.6,107.5,124.5,107.3,124.3,107.3z" style="fill: rgb(141, 198, 63);"/>
			<path class="st0" d="M126.5,60.8c18,0,32.7,14.7,32.7,32.7c0,18-14.7,32.7-32.7,32.7c-18,0-32.7-14.7-32.7-32.7&#10;&#9;&#9;&#9;&#9;C93.8,75.5,108.5,60.8,126.5,60.8 M126.5,58.7c-19.2,0-34.8,15.6-34.8,34.8c0,19.2,15.6,34.8,34.8,34.8&#10;&#9;&#9;&#9;&#9;c19.2,0,34.8-15.6,34.8-34.8C161.3,74.3,145.7,58.7,126.5,58.7L126.5,58.7z" style="fill: rgb(141, 198, 63);"/>
		</g>
	</g>
</svg>