<?xml version="1.0" encoding="utf-8"?>
<svg id="master-artboard"  version="1.1" xmlns="http://www.w3.org/2000/svg" x="0px" y="0px"
     width="385px" height="550px">

    <g>
        <path class="st0"
              d="M229.9,102.1V74.8c0-2.4-2-4.4-4.5-4.4c-2.5,0-4.5,2-4.5,4.4v27.5c-2.1,1.5-3.3,3.9-3.3,6.4&#10;&#9;&#9;&#9;&#9;c0,4.3,3.5,7.9,7.9,7.9c4.3,0,7.9-3.5,7.9-7.9C233.4,106,232.1,103.6,229.9,102.1z M225.5,115.4c-3.7,0-6.7-3-6.7-6.7&#10;&#9;&#9;&#9;&#9;c0-2.5,1.3-4.6,3.3-5.8V74.8c0-1.8,1.5-3.2,3.3-3.2c1.8,0,3.3,1.4,3.3,3.2v28c2.1,1.1,3.5,3.4,3.5,5.9&#10;&#9;&#9;&#9;&#9;C232.2,112.4,229.2,115.4,225.5,115.4z M224.9,76.8h-2.5v-1h2.5V76.8z M224.8,85.8h-2.4v-1h2.4V85.8z M223.9,79.8h-1.6v-1h1.6&#10;&#9;&#9;&#9;&#9;V79.8z M223.9,82.9h-1.6v-1h1.6V82.9z M222.4,88.1h1.6v1h-1.6V88.1z M229.7,108.7c0,2.4-1.9,4.3-4.3,4.3c-2.4,0-4.3-1.9-4.3-4.3&#10;&#9;&#9;&#9;&#9;c0-1.8,1.1-3.3,2.6-4V91.1c0-0.9,0.9-0.9,1.9-0.9c1,0,1.6,0,1.6,0.9v13.6C228.7,105.4,229.7,106.9,229.7,108.7z"
              style="fill: rgb(141, 198, 63);"/>
        <path class="st0"
              d="M225.5,60.8c18,0,32.7,14.7,32.7,32.7c0,18-14.7,32.7-32.7,32.7c-18,0-32.7-14.7-32.7-32.7&#10;&#9;&#9;&#9;&#9;C192.8,75.5,207.5,60.8,225.5,60.8 M225.5,58.7c-19.2,0-34.8,15.6-34.8,34.8c0,19.2,15.6,34.8,34.8,34.8&#10;&#9;&#9;&#9;&#9;c19.2,0,34.8-15.6,34.8-34.8C260.3,74.3,244.7,58.7,225.5,58.7L225.5,58.7z"
              style="fill: rgb(141, 198, 63);"/>
    </g>
</svg>